name C:\Users\u0101727\Documents\MyRepositories\upper-imu-dc\Results\main_tracking\Case_31\kinematics.mot
datacolumns 10
datarows 52
range 3.50000000 4.01000000
endheader 
time	clav_prot	clav_elev	scapula_abduction	scapula_elevation	scapula_upward_rot	scapula_winging	plane_elv	shoulder_elv	axial_rot	
          3.50000000	        -48.85782555	         12.37263677	         -5.40526519	          0.59144475	         86.93987560	        -15.19085288	         39.20055969	         88.52014847	        -10.50619524	
          3.51000000	        -48.85849304	         12.38737487	         -5.41962630	          0.59948457	         86.92748541	        -15.19675936	         39.26330237	         88.47987901	        -10.34705102	
          3.52000000	        -48.85429294	         12.40157380	         -5.42823551	          0.60711659	         86.91174447	        -15.19943352	         39.31691011	         88.44146779	        -10.21890145	
          3.53000000	        -48.84429813	         12.41426029	         -5.42924715	          0.61377971	         86.89270166	        -15.19795280	         39.36012874	         88.40584275	        -10.12131118	
          3.54000000	        -48.82814485	         12.42463050	         -5.42152196	          0.61902932	         86.87077722	        -15.19179571	         39.39231303	         88.37340190	        -10.05297643	
          3.55000000	        -48.80622350	         12.43208205	         -5.40498940	          0.62253512	         86.84671318	        -15.18100694	         39.41369749	         88.34394709	        -10.01171442	
          3.56000000	        -48.77972945	         12.43620407	         -5.38082363	          0.62405212	         86.82144681	        -15.16625898	         39.42552782	         88.31677116	         -9.99476601	
          3.57000000	        -48.75053526	         12.43676114	         -5.35135505	          0.62339675	         86.79593909	        -15.14878067	         39.42995527	         88.29088724	         -9.99948837	
          3.58000000	        -48.72090959	         12.43369951	         -5.31973735	          0.62045053	         86.77099869	        -15.13017122	         39.42970741	         88.26533371	        -10.02411103	
          3.59000000	        -48.69313595	         12.42716323	         -5.28942060	          0.61518473	         86.74714553	        -15.11213157	         39.42761072	         88.23947060	        -10.06815704	
          3.60000000	        -48.66914138	         12.41750469	         -5.26358543	          0.60769060	         86.72454532	        -15.09619057	         39.42611163	         88.21317715	        -10.13237792	
          3.61000000	        -48.65023525	         12.40527481	         -5.24469125	          0.59819832	         86.70302769	        -15.08349844	         39.42692414	         88.18689493	        -10.21832791	
          3.62000000	        -48.63701965	         12.39119232	         -5.23424891	          0.58707733	         86.68217813	        -15.07473586	         39.43088707	         88.16150409	        -10.32771793	
          3.63000000	        -48.62946560	         12.37609934	         -5.23283261	          0.57481925	         86.66147436	        -15.07013994	         39.43804460	         88.13806794	        -10.46151469	
          3.64000000	        -48.62709022	         12.36090795	         -5.24025299	          0.56200682	         86.64042981	        -15.06960441	         39.44789085	         88.11751956	        -10.61875632	
          3.65000000	        -48.62915613	         12.34653666	         -5.25577944	          0.54927133	         86.61871781	        -15.07279779	         39.45967830	         88.10036995	        -10.79531521	
          3.66000000	        -48.63483702	         12.33383135	         -5.27832414	          0.53723839	         86.59626606	        -15.07925736	         39.47269698	         88.08649424	        -10.98302231	
          3.67000000	        -48.64332734	         12.32346834	         -5.30655582	          0.52646146	         86.57331414	        -15.08844327	         39.48647574	         88.07502699	        -11.16950344	
          3.68000000	        -48.65390049	         12.31584943	         -5.33896599	          0.51734692	         86.55041598	        -15.09976187	         39.50089953	         88.06438589	        -11.33895037	
          3.69000000	        -48.66593161	         12.31101398	         -5.37394234	          0.51008225	         86.52835942	        -15.11258146	         39.51625413	         88.05244277	        -11.47399697	
          3.70000000	        -48.67890236	         12.30860087	         -5.40990128	          0.50458530	         86.50798344	        -15.12626435	         39.53320836	         88.03684695	        -11.55875708	
          3.71000000	        -48.69240000	         12.30788637	         -5.44549261	          0.50049358	         86.48991354	        -15.14022595	         39.55274593	         88.01545493	        -11.58258908	
          3.72000000	        -48.70611651	         12.30790501	         -5.47982840	          0.49720902	         86.47429543	        -15.15401060	         39.57607427	         87.98674083	        -11.54332475	
          3.73000000	        -48.71984531	         12.30764282	         -5.51265397	          0.49400475	         86.46062896	        -15.16736004	         39.60454033	         87.95003863	        -11.44844448	
          3.74000000	        -48.73345818	         12.30627395	         -5.54438219	          0.49018377	         86.44775858	        -15.18024360	         39.63954967	         87.90554898	        -11.31354486	
          3.75000000	        -48.74684478	         12.30339569	         -5.57596001	          0.48525891	         86.43400658	        -15.19283080	         39.68246662	         87.85414856	        -11.15861804	
          3.76000000	        -48.75981682	         12.29920373	         -5.60859973	          0.47910711	         86.41738743	        -15.20540849	         39.73449615	         87.79709925	        -11.00333637	
          3.77000000	        -48.77200035	         12.29454645	         -5.64345048	          0.47204530	         86.39583153	        -15.21826331	         39.79657994	         87.73576159	        -10.86268127	
          3.78000000	        -48.78275410	         12.29082639	         -5.68128948	          0.46479899	         86.36738368	        -15.23155947	         39.86933445	         87.67136862	        -10.74401090	
          3.79000000	        -48.79114338	         12.28976253	         -5.72228719	          0.45836960	         86.33037469	        -15.24523734	         39.95303205	         87.60487264	        -10.64618311	
          3.80000000	        -48.79597554	         12.29307158	         -5.76589011	          0.45383566	         86.28354180	        -15.25895376	         40.04761843	         87.53689058	        -10.56083554	
          3.81000000	        -48.79589414	         12.30215570	         -5.81084469	          0.45214526	         86.22609186	        -15.27208012	         40.15274999	         87.46773626	        -10.47539685	
          3.82000000	        -48.78951632	         12.31787139	         -5.85535472	          0.45395142	         86.15770983	        -15.28376146	         40.26784438	         87.39750837	        -10.37696248	
          3.83000000	        -48.77559949	         12.34041748	         -5.89735094	          0.45951833	         86.07852308	        -15.29303164	         40.39216480	         87.32618809	        -10.25596819	
          3.84000000	        -48.75320983	         12.36933631	         -5.93481718	          0.46869845	         85.98903388	        -15.29896036	         40.52495454	         87.25371445	        -10.10872729	
          3.85000000	        -48.72185513	         12.40359505	         -5.96609426	          0.48096328	         85.89003069	        -15.30079330	         40.66561174	         87.18002864	         -9.93830232	
          3.86000000	        -48.68155317	         12.44171459	         -5.99010074	          0.49546920	         85.78248582	        -15.29805432	         40.81387447	         87.10509369	         -9.75368635	
          3.87000000	        -48.63282725	         12.48192682	         -6.00645049	          0.51114698	         85.66744212	        -15.29059742	         40.96998080	         87.02890336	         -9.56770556	
          3.88000000	        -48.57663704	         12.52235268	         -6.01547568	          0.52680985	         85.54589358	        -15.27861157	         41.13476746	         86.95149288	         -9.39430995	
          3.89000000	        -48.51425985	         12.56119664	         -6.01816772	          0.54127798	         85.41867549	        -15.26258594	         41.30967151	         86.87295250	         -9.24594810	
          3.90000000	        -48.44714271	         12.59695225	         -6.01604946	          0.55351778	         85.28638899	        -15.24324583	         41.49661333	         86.79343150	         -9.13156356	
          3.91000000	        -48.37674853	         12.62860741	         -6.01099942	          0.56278868	         85.14937838	        -15.22147256	         41.69776940	         86.71311835	         -9.05550811	
          3.92000000	        -48.30440995	         12.65581913	         -6.00504124	          0.56877594	         85.00776078	        -15.19821359	         41.91526973	         86.63219910	         -9.01742714	
          3.93000000	        -48.23118529	         12.67900326	         -6.00008731	          0.57167125	         84.86148857	        -15.17437348	         42.15086548	         86.55081737	         -9.01297541	
          3.94000000	        -48.15770449	         12.69927685	         -5.99761856	          0.57215661	         84.71041692	        -15.15067112	         42.40561836	         86.46906435	         -9.03510171	
          3.95000000	        -48.08401392	         12.71822097	         -5.99832480	          0.57126637	         84.55435107	        -15.12746932	         42.67967516	         86.38701048	         -9.07560275	
          3.96000000	        -48.00946110	         12.73749721	         -6.00179806	          0.57014323	         84.39305338	        -15.10461783	         42.97219824	         86.30476773	         -9.12664812	
          3.97000000	        -47.93267486	         12.75841623	         -6.00640043	          0.56974919	         84.22620894	        -15.08136935	         43.28149777	         86.22254709	         -9.18199506	
          3.98000000	        -47.85167909	         12.78158523	         -6.00938880	          0.57061550	         84.05337259	        -15.05641605	         43.60535450	         86.14066566	         -9.23768288	
          3.99000000	        -47.76413789	         12.80673579	         -6.00730014	          0.57270341	         83.87392728	        -15.02805733	         43.94146583	         86.05947889	         -9.29214883	
          4.00000000	        -47.66769203	         12.83277020	         -5.99652328	          0.57540697	         83.68707840	        -14.99447011	         44.28791945	         85.97924459	         -9.34587493	
          4.01000000	        -47.56031952	         12.85799422	         -5.97393184	          0.57768336	         83.49189296	        -14.95402155	         44.64359751	         85.89995557	         -9.40076863	
